<?xml version="1.0" encoding="utf-8"?>
<!-- Generator: Adobe Illustrator 16.0.0, SVG Export Plug-In . SVG Version: 6.00 Build 0)  -->
<!DOCTYPE svg PUBLIC "-//W3C//DTD SVG 1.1//EN" "http://www.w3.org/Graphics/SVG/1.1/DTD/svg11.dtd">
<svg version="1.1" id="Calque_1" xmlns="http://www.w3.org/2000/svg" xmlns:xlink="http://www.w3.org/1999/xlink" x="0px" y="0px"
	 width="288.316px" height="268.173px" viewBox="0 0 288.316 268.173" enable-background="new 0 0 288.316 268.173"
	 xml:space="preserve">
<g>
	<g>
		<g>
			<path fill="#3B8F8E" stroke="#1D1D1B" stroke-width="2.2977" stroke-miterlimit="10" d="M137.58,120.964
				c0,0,3.829-2.543,16.083-1.002c12.255,1.539,19.893,1.002,19.893,1.002l12.404-27.187l-41.262-29.794l-35.842,26.969
				l11.196,33.913L137.58,120.964z"/>
			<path fill="#AEDBE0" stroke="#1D1D1B" stroke-width="2.2716" stroke-miterlimit="10" d="M169.788,107.307
				c0,0-19.072,7.959-17.006,14.723c2.067,6.764,14.623,5.904,23.603,2.834c15.26-5.221,14.722-10.838,13.07-14.827
				C187.803,106.049,169.788,107.307,169.788,107.307z"/>
			<path fill="#B3DDE2" d="M171.712,107.835c0,0-17.625,8.359-15.895,15.029c1.73,6.672,13.229,5.523,21.512,2.258
				c14.072-5.545,13.714-11.113,12.298-15.037C188.21,106.162,171.712,107.835,171.712,107.835z"/>
			<g>
				<path fill="#AEDBE0" stroke="#1D1D1B" stroke-width="2.2977" stroke-miterlimit="10" d="M207.348,57.549
					c0,0,2.865,7.784,7.716,14.55s8.681,17.105,2.298,32.169c-6.382,15.061-17.615,21.827-25.657,26.167
					c-8.042,4.342-19.021,6.385-20.808,3.32c-1.787-3.063,7.914-4.469,17.616-11.361c9.701-6.893,14.041-19.019,10.722-32.422
					C195.916,76.568,207.348,57.549,207.348,57.549z"/>
				<path fill="none" stroke="#1D1D1B" stroke-width="2.2977" stroke-miterlimit="10" d="M219.51,80.972
					c0,0-4.286-0.668-8.786,1.355s-11.37,7.615-11.37,7.615"/>
				<path fill="none" stroke="#1D1D1B" stroke-width="2.2977" stroke-linecap="round" stroke-miterlimit="10" d="M220.211,91.934
					c0,0-1.384-1.468-8.022-1.963c-6.638-0.495-12.007,5.56-12.007,5.56"/>
				<path fill="none" stroke="#1D1D1B" stroke-width="2.2977" stroke-linecap="round" stroke-miterlimit="10" d="M217.547,102.049
					c0,0-2.14-2.48-7.019-4.268c-4.879-1.788-10.393,2.133-10.393,2.133"/>
				<path fill="none" stroke="#1D1D1B" stroke-width="2.2977" stroke-linecap="round" stroke-miterlimit="10" d="M199.354,106.612
					c0,0,4.688-2.719,8.795,0.724s4.04,6.208,4.04,6.208"/>
				<path fill="none" stroke="#1D1D1B" stroke-width="2.2977" stroke-linecap="round" stroke-miterlimit="10" d="M197.054,112.619
					c0,0,0.65-0.82,4.224,2.244c3.574,3.064,4.324,6.102,4.324,6.102"/>
				<path fill="none" stroke="#1D1D1B" stroke-width="2.2977" stroke-linecap="round" stroke-miterlimit="10" d="M190.562,120.786
					c0,0,2.192-0.881,4.078,3.012c1.886,3.895,1.061,4.385,1.061,4.385"/>
				<path fill="none" stroke="#1D1D1B" stroke-width="2.2977" stroke-linecap="round" stroke-miterlimit="10" d="M183.867,125.331
					c0,0,1.691,0.541,2.2,2.84c0.511,2.297-0.107,4.324-0.107,4.324"/>
			</g>
			<path fill="#AEDBE0" stroke="#1D1D1B" stroke-width="2.6523" stroke-miterlimit="10" d="M175.616,95.191
				c0,0-19.008,14.864-14.588,21.839c4.421,6.975,22.938,1.275,31.779-5.407c8.841-6.682,8.891-15.469,5.796-19.447
				C195.51,88.199,175.616,95.191,175.616,95.191z"/>
			<path fill="#B3DDE2" d="M178.146,95.191c0,0-17.071,14.864-13.102,21.839c3.971,6.975,20.602,1.275,28.543-5.407
				c7.939-6.682,7.984-15.469,5.205-19.447C196.014,88.199,178.146,95.191,178.146,95.191z"/>
			<path fill="#FFFFFF" stroke="#1D1D1B" stroke-width="2.2977" stroke-miterlimit="10" d="M176.385,106.612"/>
			<g>
				<path fill="#FFFFFF" stroke="#1D1D1B" stroke-width="2.2977" stroke-miterlimit="10" d="M208.32,68.653
					c0,15.237-4.474,25.901-14.66,32.551c-27.573,17.999-45.826-12.254-65.486-12.254c-23.896,0-27.737,29.625-38.475,10.059
					C84.755,90,81.945,79.654,81.945,68.653c0-34.897,28.29-63.188,63.187-63.188S208.32,33.755,208.32,68.653z"/>
				<path fill="#1D1D1B" d="M160.74,7.41l4.795,6.864l-18.637,7.915l-21.701-5.362l4.324-9.417c0,0,7.48-1.944,15.611-1.944
					C153.262,5.465,160.74,7.41,160.74,7.41z"/>
				<path fill="#1D1D1B" d="M185.96,29.336l11.783,4.314c0,0,4.402,3.021,7.163,14.47c2.761,11.449,3.242,15.863,3.242,15.863
					l-6.871,4.926L185.96,51.037V29.336z"/>
				<polygon fill="#1D1D1B" points="126.218,54.94 147.153,42.153 167.066,57.549 158.643,83.507 128.812,81.163 				"/>
				<path fill="#1D1D1B" d="M96.685,28.091h6.045l-2.527,28.102L85.639,68.909l-3.694-4.926c0,0,1.174-12.585,5.107-20.251
					C90.984,36.066,96.685,28.091,96.685,28.091z"/>
				<polyline fill="#FFFFFF" stroke="#1D1D1B" stroke-width="2.2977" stroke-miterlimit="10" points="157.365,82.328 
					166.721,95.201 175.236,106.92 				"/>
				
					<line fill="#FFFFFF" stroke="#1D1D1B" stroke-width="2.2977" stroke-miterlimit="10" x1="164.259" y1="57.549" x2="188.513" y2="51.037"/>
				<path fill="#FFFFFF" stroke="#1D1D1B" stroke-width="2.2977" stroke-miterlimit="10" d="M201.277,66.1
					c0,0,3.733,10.006,3.025,16.969s-1.536,8.943-1.536,8.943"/>
				
					<line fill="#FFFFFF" stroke="#1D1D1B" stroke-width="2.2977" stroke-miterlimit="10" x1="146.643" y1="20.401" x2="146.643" y2="44.144"/>
				<path fill="#FFFFFF" stroke="#1D1D1B" stroke-width="2.2977" stroke-miterlimit="10" d="M161.45,12.486
					c0,0,9.701,3.574,15.829,7.915c6.127,4.34,11.233,11.872,11.233,11.872"/>
				
					<line fill="#FFFFFF" stroke="#1D1D1B" stroke-width="2.2977" stroke-miterlimit="10" x1="100.12" y1="29.336" x2="132.648" y2="13.827"/>
			</g>
			<path fill="#AEDBE0" stroke="#1D1D1B" stroke-width="2.2977" stroke-miterlimit="10" d="M152.811,112.897
				c6.273-2.979,6.862-13.2,1.883-25.255c-4.979-12.055-12.538-16.489-18.083-11.793c-5.545,4.696-8.61,17.648,0.813,29.015
				C139.336,107.17,146.322,115.978,152.811,112.897z"/>
			<path fill="#AEDBE0" stroke="#1D1D1B" stroke-width="2.2977" stroke-miterlimit="10" d="M148.665,121.308
				c1.146-6.85-6.899-13.18-19.634-15.996c-12.735-2.814-20.697,0.847-20.019,8.082c0.679,7.232,9.547,17.16,24.261,15.936
				C136.257,129.081,147.479,128.392,148.665,121.308z"/>
			<g>
				<path fill="#AEDBE0" stroke="#1D1D1B" stroke-width="2.2977" stroke-miterlimit="10" d="M107.326,51.037
					c0,0-3.323-16.42,1.53-31.06c4.853-14.64,12.448-18.469,12.448-18.469s9.409,15.829,7.162,27.573s-11.482,16.125-15.204,18.361
					S107.326,51.037,107.326,51.037z"/>
				<path fill="#AEDBE0" stroke="#1D1D1B" stroke-width="2.2977" stroke-miterlimit="10" d="M91.433,120.927
					c0,0-5.553,1.34-15.892-11.681c-10.34-13.021-8.809-30.371-8.809-30.371s8.978-0.647,15.212,8.926
					c6.234,9.574,9.488,26.615,9.488,26.615V120.927z"/>
				<g>
					<path fill="#AEDBE0" stroke="#1D1D1B" stroke-width="2.2977" stroke-miterlimit="10" d="M93.156,124.565
						c-3.446-1.533-14.169-20.297-3.446-49.403c10.723-29.104,28.338-33.699,31.785-32.934c3.447,0.766,17.999,20.68,7.276,50.55
						C118.048,122.649,96.603,126.097,93.156,124.565z"/>
					<path fill="#1D1D1B" d="M86.325,111.134C85.175,102.912,84.981,88,89.71,75.163c5.217-14.159,13.776-23.785,19.831-28.547
						c0,0-4.131,9.017-0.685,18.4c3.447,9.382,5.746,12.449,5.746,12.449s-2.681,2.868-4.596,6.89
						c-1.915,4.021-2.489,8.425-2.489,8.425s-9.574,0.766-15.127,5.744C86.838,103.501,86.325,111.134,86.325,111.134z"/>
					
						<ellipse transform="matrix(0.9407 0.3394 -0.3394 0.9407 38.4248 -35.7059)" fill="#1D1D1B" cx="121.304" cy="92.012" rx="6.702" ry="10.006"/>
					<g>
						
							<ellipse transform="matrix(0.9455 0.3256 -0.3256 0.9455 25.6914 -34.5751)" fill="#1D1D1B" cx="116.134" cy="59.462" rx="3.829" ry="4.595"/>
						<path fill="#FFFFFF" d="M112.588,58.427c-0.208,0.891-0.27,1.831,0,2.717c0.182,0.598,0.797,0.972,1.413,0.802
							c0.591-0.163,0.985-0.814,0.802-1.413c-0.142-0.467-0.127-0.946,0-1.495c0.143-0.61-0.181-1.242-0.802-1.414
							C113.416,57.464,112.73,57.817,112.588,58.427L112.588,58.427z"/>
					</g>
					<g>
						
							<ellipse transform="matrix(0.9981 0.061 -0.061 0.9981 6.6772 -5.6656)" fill="#1D1D1B" cx="96.201" cy="106.612" rx="3.829" ry="4.595"/>
						<path fill="#FFFFFF" d="M92.764,105.521c-0.012,0.024-0.023,0.049-0.037,0.071c0.229-0.176,0.458-0.352,0.687-0.527h-0.001
							c0.472,0.471,0.943,0.941,1.414,1.413c-0.171,0.496-0.045,0.118,0.025-0.024c0.108-0.218,0.222-0.433,0.339-0.646
							c0.132-0.241,0.274-0.478,0.426-0.708c0.028-0.041,0.057-0.082,0.086-0.123c0.147-0.207-0.165,0.199-0.014,0.021
							c0.025-0.028,0.051-0.056,0.078-0.082c0.143-0.146-0.243,0.159-0.09,0.071c1.285-0.736,0.128-2.722-1.16-1.984
							c-0.56,0.322-0.917,0.956-1.229,1.499c-0.248,0.432-0.515,0.893-0.677,1.366c-0.275,0.798,0.607,1.701,1.413,1.413
							c0.315-0.113,0.571-0.296,0.725-0.6c0.282-0.56,0.152-1.241-0.413-1.571C93.822,104.808,93.046,104.962,92.764,105.521
							L92.764,105.521z"/>
					</g>
				</g>
			</g>
		</g>
		<path fill="#AEDBE0" d="M146.643,77.844c0,0,4.532,9.701,4.149,18.541c-0.384,8.84-14.336,7.242-14.336,7.242
			s10.854,14.661,18.676,7.578c5.489-4.973,1.406-18.335,1.421-18.295c1.544,4.493-3.764-9.849-5.432-12.044
			S146.643,77.844,146.643,77.844z"/>
		<path fill="#AEDBE0" d="M131.146,106.504l-7.162-1.088l-6.455,6.825l-7.164,5.66l6.458,7.217l8.546,3.76l13.768-0.326l8.242-3.434
			l1.395-8.221l-6.546-6.417c0,0-3.786,0.817-6.897,2.759c-3.112,1.941-6.458,3.908-6.458,3.908l-4.319-1.199
			c0,0-0.76-1.342,1.346-4.213C128.005,108.863,131.146,106.504,131.146,106.504z"/>
		<path fill="#AEDBE0" d="M136.456,77.078c0,0,2.433,2.679,1.889,8.327s-5.064,12.738-5.064,12.738s-2.196-3.547-1.887-8.2
			c0.309-4.653-0.329-6.826,1.254-9.076C134.232,78.617,136.456,77.078,136.456,77.078z"/>
		<path fill="#AEDBE0" d="M116.134,94.423c0,0-0.649,0-7.37,0c-6.342,0-18.506,21.144-17.331,26.503
			c2.479,11.303,19.602-0.965,19.602-0.965s3.887-5.814,8.104-10.395c4.217-4.579,7.052-11.424,7.052-11.424L116.134,94.423z"/>
		<path fill="#AEDBE0" d="M121.304,83.507c0,0,0.727-3.429-1.251-4.451c-1.979-1.021,1.033-14.673,5.145-19.269
			c4.111-4.596,5.106,0,5.106,0s2.021,10.967,2.184,16.022c0.162,5.057-3.089,15.142-3.089,15.142l-4.201,1.061L121.304,83.507z"/>
		<path fill="#AEDBE0" d="M110.134,44.144c0,0-1.804-7.148,4.714-14.808c6.519-7.659,12.04-8.935,12.04-8.935
			s3.135,6.867,0.743,11.872c-2.392,5.004-4.988,9.88-4.988,9.88h-6.51l-3.919,2.787L110.134,44.144z"/>
		<path fill="#AEDBE0" d="M69.205,97.315c0,0,5.299,8.211,9.838,7.774c4.54-0.438,6.601-3.88,6.601-3.88l0.681,9.925l3.714,9.83
			l-6.959-3.816l-8.88-9.722L69.205,97.315z"/>
		<path fill="#AEDBE0" d="M209.433,62.831c0,0,9.281,14.817,11.286,22.574c2.004,7.757-7.616,29.542-10.523,31.743
			c-2.906,2.199-15.748,11.766-15.748,11.766s14.606-13.285,13.272-20.433c-1.336-7.148-7.259-4.595-7.259-4.595v-8.689
			l6.333-12.868l1.354-16.228L209.433,62.831z"/>
		<path fill="#E3E3E2" d="M164.259,82.328l7.184-20.34l17.07-5.794l11.623,13.067c0,0,1.142,6.541,1.396,11.647
			c0.257,5.106-0.511,7.659-1.531,10.212c-1.021,2.554-5.871,7.148-11.232,9.446c-5.362,2.297-11.744,2.809-11.744,2.809
			L164.259,82.328z"/>
		<path fill="#E3E3E2" d="M152.26,39.549c0,0,1.531-6.638,5.616-12.51c4.086-5.872,11.999-7.915,11.999-7.915
			s9.191,5.106,11.489,7.915c2.298,2.808,2.808,4.85,2.808,4.85l0.512,17.105l-17.105,4.851L152.26,39.549z"/>
		<path fill="#E3E3E2" d="M204.342,67.887l2.425-1.532c0,0,0.255,5.361,0.127,8.17c-0.127,2.809-0.766,5.616-0.766,5.616
			s-0.511-7.787-0.766-9.063C205.107,69.802,204.342,67.887,204.342,67.887z"/>
		<path fill="#E3E3E2" d="M154.685,84.864l2.426-0.51l15.572,21.318c0,0-5.999-1.149-9.063-2.554s-4.467-1.915-4.467-1.915
			s-0.768-5.361-1.788-8.425S154.685,84.864,154.685,84.864z"/>
		<path fill="#E3E3E2" d="M176.131,14.401c0,0-1.022,0-1.66,0.511c-0.638,0.51-0.766,1.021-0.766,1.021s7.404,4.34,10.34,7.66
			c2.936,3.319,4.851,6.382,4.851,6.382l7.914,3.574l-5.616-8.936l-10.724-7.914L176.131,14.401z"/>
	</g>
	<g>
		<path fill="#1D1D1B" d="M35.693,198.644l-0.057-29.585l-12.5,25.455H18.78L6.278,169.059v29.585H0v-39.598h7.918l13.067,26.304
			l13.01-26.304h7.862v39.598H35.693z"/>
		<path fill="#1D1D1B" d="M57.923,189.705l-3.791,8.938h-6.958l17.479-39.598h6.845l17.31,39.598h-7.128l-3.79-8.938H57.923z
			 M67.879,166.174l-7.467,17.591h14.933L67.879,166.174z"/>
		<path fill="#1D1D1B" d="M104.647,165.042v33.602h-6.675v-33.602H85.471v-5.996h31.734v5.996H104.647z"/>
		<path fill="#1D1D1B" d="M153.125,164.984l-3.903,4.866c-2.885-3.111-7.015-5.034-11.03-5.034c-7.92,0-14.142,6.108-14.142,13.914
			c0,7.807,6.222,13.974,14.142,13.974c3.959,0,8.032-1.811,11.03-4.696l3.96,4.413c-4.018,3.959-9.73,6.505-15.331,6.505
			c-11.596,0-20.589-8.768-20.589-20.138c0-11.257,9.107-19.911,20.816-19.911C143.678,158.877,149.279,161.195,153.125,164.984z"/>
		<path fill="#1D1D1B" d="M187.63,198.644v-16.406h-20.985v16.406h-6.676v-39.598h6.676v17.196h20.985v-17.196h6.675v39.598H187.63z
			"/>
		<path fill="#1D1D1B" d="M210.313,189.705l-3.79,8.938h-6.958l17.479-39.598h6.844l17.309,39.598h-7.126l-3.791-8.938H210.313z
			 M220.269,166.174l-7.467,17.591h14.934L220.269,166.174z"/>
		<path fill="#1D1D1B" d="M282.151,198.644l-0.056-29.585l-12.501,25.455h-4.357l-12.501-25.455v29.585h-6.279v-39.598h7.921
			l13.066,26.304l13.01-26.304h7.862v39.598H282.151z"/>
	</g>
	<g>
		<path fill="#006069" d="M131.301,253.41l-1.126,2.392c-1.748-1.058-3.496-1.495-4.714-1.495c-1.586,0-2.621,0.598-2.621,1.679
			c0,3.519,8.692,1.633,8.669,7.428c0,2.874-2.529,4.645-6.071,4.645c-2.529,0-4.921-1.034-6.577-2.553l1.173-2.345
			c1.656,1.518,3.725,2.345,5.45,2.345c1.886,0,3.013-0.712,3.013-1.954c0-3.587-8.692-1.587-8.692-7.313
			c0-2.76,2.369-4.484,5.864-4.484C127.76,251.754,129.807,252.421,131.301,253.41z"/>
		<path fill="#006069" d="M150.413,259.918c0,4.599-3.726,8.163-8.531,8.163c-4.806,0-8.531-3.564-8.531-8.163
			c0-4.622,3.725-8.117,8.531-8.117C146.688,251.801,150.413,255.318,150.413,259.918z M136.11,259.918
			c0,3.196,2.645,5.726,5.795,5.726s5.726-2.529,5.726-5.726s-2.576-5.68-5.726-5.68C138.731,254.238,136.11,256.722,136.11,259.918
			z"/>
		<path fill="#006069" d="M168.399,259.918c0,4.599-3.726,8.163-8.531,8.163s-8.531-3.564-8.531-8.163
			c0-4.622,3.726-8.117,8.531-8.117S168.399,255.318,168.399,259.918z M154.096,259.918c0,3.196,2.645,5.726,5.795,5.726
			s5.727-2.529,5.727-5.726s-2.576-5.68-5.727-5.68C156.718,254.238,154.096,256.722,154.096,259.918z"/>
		<path fill="#006069" d="M182.591,267.966l-8.577-11.544v11.544h-2.713v-16.097h2.667l8.623,11.566v-11.566h2.668v16.097H182.591z"
			/>
		<path fill="#006069" d="M191.355,266.632c0,0.897-0.621,1.541-1.448,1.541c-0.828,0-1.449-0.644-1.449-1.541
			c0-0.874,0.621-1.494,1.449-1.494C190.734,265.138,191.355,265.758,191.355,266.632z"/>
		<path fill="#006069" d="M196.369,266.632c0,0.897-0.621,1.541-1.448,1.541c-0.828,0-1.449-0.644-1.449-1.541
			c0-0.874,0.621-1.494,1.449-1.494C195.748,265.138,196.369,265.758,196.369,266.632z"/>
		<path fill="#006069" d="M201.383,266.632c0,0.897-0.621,1.541-1.448,1.541c-0.828,0-1.449-0.644-1.449-1.541
			c0-0.874,0.621-1.494,1.449-1.494C200.762,265.138,201.383,265.758,201.383,266.632z"/>
	</g>
</g>
</svg>
